<svg xmlns="http://www.w3.org/2000/svg" fill="none" viewBox="0 0 11 12">
  <path fill="#F1F1F1" d="M8.694 1.213A5.57 5.57 0 0111 5.741c0 3.068-2.457 5.556-5.489 5.562C2.484 11.31.004 8.813 0 5.75a5.582 5.582 0 012.302-4.534.53.53 0 01.776.172l.35.63a.542.542 0 01-.146.696 3.763 3.763 0 00-1.508 3.025C1.772 7.81 3.426 9.51 5.5 9.51c2.031 0 3.74-1.664 3.726-3.792a3.783 3.783 0 00-1.51-3.006.539.539 0 01-.145-.693l.35-.63a.528.528 0 01.773-.175zM6.387 5.921V.538A.534.534 0 005.855 0h-.71a.534.534 0 00-.532.538v5.383c0 .298.237.538.532.538h.71c.295 0 .532-.24.532-.538z"/>
</svg>