<svg xmlns="http://www.w3.org/2000/svg" fill="none" viewBox="0 0 7 9">
    <path fill="#F1F1F1" d="M3.683 0C2.228 0 1.285.575.545 1.6a.412.412 0 00.095.578l.786.575c.19.138.458.106.606-.073.457-.552.796-.87 1.509-.87.56 0 1.254.349 1.254.873 0 .397-.34.6-.893.9-.646.349-1.5.783-1.5 1.87v.172a.43.43 0 00.437.422h1.322a.43.43 0 00.437-.422v-.101c0-.754 2.284-.785 2.284-2.824 0-1.535-1.652-2.7-3.2-2.7zM3.5 6.565c-.696 0-1.263.546-1.263 1.217C2.237 8.454 2.804 9 3.5 9s1.263-.546 1.263-1.218c0-.671-.567-1.217-1.263-1.217z"/>
</svg>
