<svg xmlns="http://www.w3.org/2000/svg" fill="none" viewBox="0 0 11 12">
  <path fill="#626262" d="M1.321 6.173a4.594 4.594 0 01-.032-.521c0-2.371 1.904-4.327 4.211-4.327 1.076 0 2.084.446 2.825 1.141l-.371.389a.345.345 0 00-.084.33.34.34 0 00.245.226c.065.013 2.196.719 2.06.69.173.06.428-.13.38-.39l-.457-2.36a.329.329 0 00-.226-.252.316.316 0 00-.316.087l-.316.317A5.417 5.417 0 005.5 0C2.477 0 0 2.546 0 5.652v.013c0 .187.008.33.018.441a.328.328 0 00.258.295l.662.136a.326.326 0 00.383-.364zM10.726 4.902l-.664-.14a.326.326 0 00-.384.365c.023.194.033.381.033.525 0 2.37-1.904 4.327-4.211 4.327-1.076 0-2.084-.446-2.825-1.148l.372-.382a.345.345 0 00.083-.331.34.34 0 00-.245-.225C2.82 7.879.69 7.173.825 7.202a.31.31 0 00-.29.092.336.336 0 00-.09.298L.902 9.93c.026.12.11.219.226.252a.304.304 0 00.316-.086l.31-.318A5.44 5.44 0 005.5 11.303c3.023 0 5.5-2.545 5.5-5.651v-.02c0-.147-.005-.291-.017-.434a.328.328 0 00-.257-.296z"/>
</svg>