<svg xmlns="http://www.w3.org/2000/svg" fill="none" viewBox="0 0 8 16">
  <path fill="url(#paint0_linear)" d="M7.463.17A.311.311 0 007.188 0h-2.5a.311.311 0 00-.275.167L.663 7.233a.33.33 0 00.006.317.312.312 0 00.268.157h2.591l-2.044 3.735-.686-.47a.306.306 0 00-.309-.021.32.32 0 00-.175.262L0 15.067a.323.323 0 00.15.301.306.306 0 00.33-.003l3.437-2.248a.324.324 0 00.141-.32.318.318 0 00-.226-.261l-.904-.254L6.823 6.28a.33.33 0 00.015-.33.311.311 0 00-.275-.17H4.02L7.448.5a.33.33 0 00.015-.33z"/>
  <defs>
    <linearGradient id="paint0_linear" x1="3.75" x2="3.75" y1="0" y2="15.415" gradientUnits="userSpaceOnUse">
      <stop stop-color="#F15F79"/>
      <stop offset="1" stop-color="#C84E89"/>
    </linearGradient>
  </defs>
</svg>