<svg xmlns="http://www.w3.org/2000/svg" fill="none" viewBox="0 0 11 12">
  <path fill="#F1F1F1" d="M5.5.448C2.462.448 0 2.978 0 6.1c0 3.121 2.462 5.652 5.5 5.652S11 9.222 11 6.1C11 2.979 8.538.448 5.5.448zm1.825 8.15c-.087.088-.177.18-.25.257a.548.548 0 00-.138.244c-.033.129-.06.26-.105.384l-.386 1.068a4.316 4.316 0 01-.946.107v-.624c.037-.288-.17-.827-.502-1.168a.74.74 0 01-.208-.516v-.73a.73.73 0 00-.365-.637 36.266 36.266 0 00-1.082-.595c-.255-.131-.49-.3-.702-.495l-.018-.017c-.151-.14-.286-.299-.4-.472-.208-.314-.547-.83-.767-1.166a4.52 4.52 0 012.288-2.322l.533.274a.355.355 0 00.513-.326v-.258c.178-.03.358-.048.541-.055l.628.645a.372.372 0 010 .516l-.104.106-.23.236a.186.186 0 000 .258l.105.107c.069.07.069.186 0 .257l-.178.183a.175.175 0 01-.125.053h-.2a.175.175 0 00-.124.052l-.22.22a.184.184 0 00-.035.212l.346.71c.06.122-.027.264-.158.264H4.91a.174.174 0 01-.117-.044l-.205-.184a.352.352 0 00-.345-.07l-.692.236a.266.266 0 00-.13.1.277.277 0 00.096.402l.246.127c.208.107.438.163.672.163.233 0 .5.622.71.729h1.48a.7.7 0 01.502.214l.303.311c.127.13.198.308.198.492a1.086 1.086 0 01-.304.752zm1.923-2.082a.533.533 0 01-.314-.227l-.399-.615a.557.557 0 010-.607l.435-.67a.537.537 0 01.205-.185l.288-.148c.3.614.472 1.304.472 2.036 0 .198-.016.391-.04.582l-.647-.166z"/>
</svg>
