<svg xmlns="http://www.w3.org/2000/svg" fill="none" viewBox="0 0 15 12">
  <path fill="url(#paint0_linear)" d="M14.88 3.342C10.729-.793 4.27-.791.12 3.342a.423.423 0 00-.009.58l.803.857a.361.361 0 00.525.01c3.42-3.374 8.702-3.374 12.123 0 .15.147.38.143.525-.01l.802-.857a.423.423 0 00-.008-.58zM7.5 8.315c-.829 0-1.5.723-1.5 1.615s.671 1.615 1.5 1.615S9 10.822 9 9.93s-.671-1.615-1.5-1.615zm4.75-2.109c-2.701-2.572-6.802-2.569-9.5 0a.42.42 0 00-.013.584l.807.858c.14.15.367.16.517.02 1.967-1.83 4.915-1.827 6.878 0 .15.14.376.13.517-.02l.807-.858a.42.42 0 00-.013-.584z"/>
  <defs>
    <linearGradient id="paint0_linear" x1="0" x2="15" y1="5.893" y2="5.893" gradientUnits="userSpaceOnUse">
      <stop stop-color="#C84E89"/>
      <stop offset="1" stop-color="#F15F79"/>
    </linearGradient>
  </defs>
</svg>